<svg xmlns="http://www.w3.org/2000/svg" xmlns:xlink="http://www.w3.org/1999/xlink" version="1.1" id="Layer_1" x="0px" y="0px" viewBox="0 0 512 512" style="enable-background:new 0 0 512 512;" xml:space="preserve">
<g>
	<g>
		<path d="M463.797,395.181l-9.633-33.065c2.559-0.239,5.142-0.374,7.749-0.374c9.22,0,16.696-7.475,16.696-16.696    s-7.475-16.696-16.696-16.696c-5.825,0-11.568,0.46-17.206,1.303L365.56,57.995l33.619-8.405    c8.945-2.236,14.385-11.301,12.148-20.245c-2.237-8.945-11.307-14.389-20.245-12.148L257.517,50.589    c-8.946,2.236-14.385,11.301-12.148,20.245c2.237,8.951,11.307,14.386,20.245,12.148L333.142,66.1l79.593,273.186    c-12.031,5.61-23.032,13.208-32.504,22.455H131.771C110.422,340.9,81.337,328.35,50.087,328.35    c-9.22,0-16.696,7.475-16.696,16.696s7.475,16.696,16.696,16.696c37.443,0,70.542,25.214,80.494,61.316    c0.518,1.875,1.129,3.694,1.812,5.466H97.302c-6.892-19.433-25.45-33.391-47.215-33.391C22.469,395.133,0,417.602,0,445.22    c0,27.618,22.469,50.087,50.087,50.087c21.766,0,40.323-13.959,47.215-33.391c4.176,0,231.244,0,235.42,0    c22.718,0,42.288-15.615,48.698-38.859c6.177-22.411,21.279-40.619,40.8-51.212l9.698,33.288    c-12.19,9.146-20.092,23.71-20.092,40.087c0,27.618,22.469,50.087,50.087,50.087S512,472.838,512,445.22    C512,418.234,490.545,396.177,463.797,395.181z M50.087,461.915c-9.206,0-16.696-7.49-16.696-16.696    c0-9.206,7.49-16.696,16.696-16.696s16.696,7.49,16.696,16.696C66.783,454.426,59.293,461.915,50.087,461.915z M349.23,414.181    c-1.825,6.617-7.243,14.343-16.508,14.343H179.278c-9.265,0-14.682-7.726-16.506-14.342c-1.828-6.63-4.226-12.989-7.11-19.05    H356.34C353.456,401.192,351.057,407.552,349.23,414.181z M461.913,461.915c-9.206,0-16.696-7.49-16.696-16.696    c0-9.206,7.49-16.696,16.696-16.696s16.696,7.49,16.696,16.696C478.609,454.426,471.119,461.915,461.913,461.915z" fill="#ffffff"/>
	</g>
</g>
<g>
</g>
<g>
</g>
<g>
</g>
<g>
</g>
<g>
</g>
<g>
</g>
<g>
</g>
<g>
</g>
<g>
</g>
<g>
</g>
<g>
</g>
<g>
</g>
<g>
</g>
<g>
</g>
<g>
</g>
</svg>